# xmcd
#
# Track frame offsets:
#	150
#	16371
#	34628
#	51708
#	64060
#
# Disc length: 1075 seconds
#
# Revision: 1
# Processed by: cddbd v1.5.2PL0 Copyright (c) Steve Scherf et al.
# Submitted via: audiograbber 1.83.01
#
DISCID=40043105
DTITLE=Standard Crow Behavior - How to build a nest
DYEAR=2019
DGENRE=Country
TTITLE0=It's OK
TTITLE1=Into the Blue
TTITLE2=Empty Lines
TTITLE3=Run
TTITLE4=Gone for Good
EXTD=
EXTT0=
EXTT1=
EXTT2=
EXTT3=
EXTT4=by cml Ledeburgh
PLAYORDER=
